<?xml version="1.0" standalone="no"?><!DOCTYPE svg PUBLIC "-//W3C//DTD SVG 1.1//EN" "http://www.w3.org/Graphics/SVG/1.1/DTD/svg11.dtd"><svg t="1768288951037" class="icon" viewBox="0 0 1024 1024" version="1.1" xmlns="http://www.w3.org/2000/svg" p-id="1729" xmlns:xlink="http://www.w3.org/1999/xlink" width="200" height="200"><path d="M320 512m-213.333333 0a213.333333 213.333333 0 1 0 426.666666 0 213.333333 213.333333 0 1 0-426.666666 0Z" fill="#36435C" p-id="1730"></path><path d="M404.8 523.2l321.6 185.6c-22.4 18.133333-37.866667 44.266667-42.133333 74.133333l-322.133334-186.133333 42.666667-73.6z m217.066667-236.8c5.866667 28.8 20.266667 54.933333 40.533333 75.2L383.466667 522.133333l-42.666667-74.133333 281.066667-161.6z" fill="#36435C" p-id="1731"></path><path d="M800 704c-26.666667 0-50.666667 10.666667-67.733333 28.266667-17.6 17.6-28.266667 41.6-28.266667 67.733333s10.666667 50.666667 28.266667 67.733333c17.6 17.6 41.6 28.266667 67.733333 28.266667s50.666667-10.666667 67.733333-28.266667S896 826.666667 896 800s-10.666667-50.666667-28.266667-67.733333c-17.066667-17.6-41.066667-28.266667-67.733333-28.266667z m-32-576c-35.2 0-67.2 14.4-90.666667 37.333333-22.933333 22.933333-37.333333 54.933333-37.333333 90.666667s14.4 67.2 37.333333 90.666667c22.933333 22.933333 54.933333 37.333333 90.666667 37.333333 35.2 0 67.2-14.4 90.666667-37.333333 22.933333-22.933333 37.333333-54.933333 37.333333-90.666667s-14.4-67.2-37.333333-90.666667c-23.466667-22.933333-55.466667-37.333333-90.666667-37.333333z" fill="#36435C" opacity=".2" p-id="1732"></path><path d="M800 917.333333c-31.466667 0-60.8-12.266667-83.2-34.133333-22.4-22.4-34.133333-51.733333-34.133333-83.2s12.266667-60.8 34.133333-83.2c22.4-22.4 51.733333-34.133333 83.2-34.133333s60.8 12.266667 83.2 34.133333c22.4 22.4 34.133333 51.733333 34.133333 83.2s-12.266667 60.8-34.133333 83.2c-22.4 21.866667-51.733333 34.133333-83.2 34.133333z m0-192c-19.733333 0-38.933333 8-52.8 21.866667-13.866667 13.866667-21.866667 33.066667-21.866667 52.8s8 38.933333 21.866667 52.8c13.866667 13.866667 33.066667 21.866667 52.8 21.866667s38.933333-8 52.8-21.866667c13.866667-13.866667 21.866667-33.066667 21.866667-52.8s-8-38.933333-21.866667-52.8c-13.866667-13.866667-33.066667-21.866667-52.8-21.866667z m-32-320c-40 0-77.333333-15.466667-105.6-43.733333-28.266667-28.266667-43.733333-65.6-43.733333-105.6s15.466667-77.333333 43.733333-105.6c28.266667-28.266667 65.6-43.733333 105.6-43.733333s77.333333 15.466667 105.6 43.733333c28.266667 28.266667 43.733333 65.6 43.733333 105.6s-15.466667 77.333333-43.733333 105.6c-28.266667 28.266667-65.6 43.733333-105.6 43.733333z m0-256c-28.266667 0-55.466667 11.2-75.2 31.466667-20.266667 20.266667-31.466667 46.933333-31.466667 75.2s11.2 55.466667 31.466667 75.2c20.266667 20.266667 46.933333 31.466667 75.2 31.466667s55.466667-11.2 75.2-31.466667c20.266667-20.266667 31.466667-46.933333 31.466667-75.2s-11.2-55.466667-31.466667-75.2c-19.733333-20.266667-46.933333-31.466667-75.2-31.466667z" fill="#36435C" p-id="1733"></path></svg>